<?xml version="1.0" encoding="UTF-8" standalone="no"?>
<svg width="35px" height="40px" viewBox="0 0 35 40" version="1.1" xmlns="http://www.w3.org/2000/svg" xmlns:xlink="http://www.w3.org/1999/xlink">
    <defs>
        <defs>
        <radialGradient id="gradient"
            fx="0" fy="0" r="100%"
            spreadMethod="pad">
            <stop offset="0%"   stop-color="#ffffff" stop-opacity="1"/>
            <stop offset="100%" stop-color="#ffffff" stop-opacity="1" />
            </radialGradient>
        </defs>
        <mask id="logo-mask" maskUnits="userSpaceOnUse" x="0" y="0" width="300" height="300">
            
        </mask>
    </defs>
    <g id="heatherLogo" fill="white">
        <path d="M24.0483123,23.1404959 L24.0483123,16.1983471 L10.2539123,16.1983471 L10.2539123,2.97520661 L10.2539123,0 L6.61538462e-05,0 L6.61538462e-05,2.97520661 C1.54112,2.97520661 2.52218154,3.95570248 2.52218154,5.16528926 L2.52218154,34.3801653 L2.51523538,34.3801653 L2.51523538,34.6403306 C2.44445077,35.7861157 1.49481231,36.6942149 6.61538462e-05,36.6942149 L6.61538462e-05,39.6694215 L2.51523538,39.6694215 L10.2539123,39.6694215 L12.7690815,39.6694215 L12.7690815,36.6942149 C11.2740046,36.6942149 10.3246969,35.7861157 10.2539123,34.6403306 L10.2539123,23.1404959 L24.0483123,23.1404959 Z" id="Fill-1"></path>
        <path d="M31.7813992,5.02892562 C31.7787531,5.07421488 31.7744531,5.11917355 31.7744531,5.16512397 L31.7744531,5.28909091 L24.0496685,5.28909091 L24.0496685,5.16512397 C24.0496685,5.11917355 24.0456992,5.07421488 24.0427223,5.02892562 C23.9719377,3.8831405 23.02263,2.97504132 21.5275531,2.97504132 L21.5275531,-0.000165289256 L24.0427223,-0.000165289256 L31.7813992,-0.000165289256 L34.2965685,-0.000165289256 L34.2965685,2.97504132 C32.8018223,2.97504132 31.8521838,3.8831405 31.7813992,5.02892562" id="Fill-3"></path>
        <path d="M31.7813992,34.6404959 C31.7787531,34.5952066 31.7744531,34.5502479 31.7744531,34.5042975 L31.7744531,34.3803306 L24.0496685,34.3803306 L24.0496685,34.5042975 C24.0496685,34.5502479 24.0456992,34.5952066 24.0427223,34.6404959 C23.9719377,35.786281 23.02263,36.6943802 21.5275531,36.6943802 L21.5275531,39.6695868 L24.0427223,39.6695868 L31.7813992,39.6695868 L34.2965685,39.6695868 L34.2965685,36.6943802 C32.8018223,36.6943802 31.8521838,35.786281 31.7813992,34.6404959" id="Fill-6"></path>
    </g>
</svg>